<mxfile host="app.diagrams.net" modified="2024-05-27T07:52:50.463Z" agent="Mozilla/5.0 (Windows NT 10.0; Win64; x64) AppleWebKit/537.36 (KHTML, like Gecko) Chrome/125.0.0.0 Safari/537.36 Edg/125.0.0.0" etag="K5F85txoI1ObnoQTD6q7" version="24.4.6" type="device">
  <diagram name="Page-1" id="12e1b939-464a-85fe-373e-61e167be1490">
    <mxGraphModel dx="2863" dy="2888" grid="1" gridSize="10" guides="1" tooltips="1" connect="1" arrows="1" fold="1" page="1" pageScale="1.5" pageWidth="1169" pageHeight="826" background="none" math="0" shadow="0">
      <root>
        <mxCell id="0" />
        <mxCell id="1" parent="0" />
        <mxCell id="60da8b9f42644d3a-31" value="" style="whiteSpace=wrap;html=1;rounded=1;shadow=0;strokeWidth=8;fontSize=20;align=center;fillColor=#C7D7FC;strokeColor=#FFFFFF;" parent="1" vertex="1">
          <mxGeometry x="1158" y="405" width="280" height="430" as="geometry" />
        </mxCell>
        <mxCell id="8lI5MKsPfhPDp3e18J9--39" value="" style="group" parent="1" vertex="1" connectable="0">
          <mxGeometry x="1438" y="407" width="283" height="430" as="geometry" />
        </mxCell>
        <mxCell id="8lI5MKsPfhPDp3e18J9--40" value="" style="whiteSpace=wrap;html=1;rounded=1;shadow=0;strokeWidth=8;fontSize=20;align=center;fillColor=#afd0fd;strokeColor=#FFFFFF;" parent="8lI5MKsPfhPDp3e18J9--39" vertex="1">
          <mxGeometry x="3" width="280" height="430" as="geometry" />
        </mxCell>
        <mxCell id="8lI5MKsPfhPDp3e18J9--41" value="1.0.0 Release" style="text;html=1;strokeColor=none;fillColor=none;align=center;verticalAlign=middle;whiteSpace=wrap;rounded=0;shadow=0;fontSize=27;fontColor=#000000;fontStyle=1" parent="8lI5MKsPfhPDp3e18J9--39" vertex="1">
          <mxGeometry y="20" width="280" height="60" as="geometry" />
        </mxCell>
        <mxCell id="8lI5MKsPfhPDp3e18J9--42" value="Releasing 1.0.0 version of fmi-ls-bus that&lt;br style=&quot;border-color: var(--border-color);&quot;&gt;is technical and formal verified&amp;nbsp;&lt;br style=&quot;border-color: var(--border-color);&quot;&gt;CAN, CAN FD and CAN XL" style="text;html=1;strokeColor=none;fillColor=none;align=center;verticalAlign=middle;whiteSpace=wrap;rounded=0;shadow=0;fontSize=14;fontColor=#000000;" parent="8lI5MKsPfhPDp3e18J9--39" vertex="1">
          <mxGeometry x="1" y="320" width="280" height="90" as="geometry" />
        </mxCell>
        <mxCell id="8lI5MKsPfhPDp3e18J9--43" value="" style="line;strokeWidth=2;html=1;rounded=0;shadow=0;fontSize=27;align=center;fillColor=none;strokeColor=#FFFFFF;" parent="8lI5MKsPfhPDp3e18J9--39" vertex="1">
          <mxGeometry x="20" y="80" width="240" height="10" as="geometry" />
        </mxCell>
        <mxCell id="8lI5MKsPfhPDp3e18J9--44" value="" style="line;strokeWidth=2;html=1;rounded=0;shadow=0;fontSize=27;align=center;fillColor=none;strokeColor=#FFFFFF;" parent="8lI5MKsPfhPDp3e18J9--39" vertex="1">
          <mxGeometry x="20" y="300" width="240" height="10" as="geometry" />
        </mxCell>
        <mxCell id="60da8b9f42644d3a-2" value="" style="whiteSpace=wrap;html=1;rounded=1;shadow=0;strokeWidth=8;fontSize=20;align=center;fillColor=#fff2cc;strokeColor=#FFFFFF;fillStyle=auto;glass=0;" parent="1" vertex="1">
          <mxGeometry x="313" y="405" width="280" height="430" as="geometry" />
        </mxCell>
        <mxCell id="60da8b9f42644d3a-3" value="General Concepts" style="text;html=1;strokeColor=none;fillColor=none;align=center;verticalAlign=middle;whiteSpace=wrap;rounded=0;shadow=0;fontSize=27;fontColor=#000000;fontStyle=1" parent="1" vertex="1">
          <mxGeometry x="313" y="425" width="280" height="60" as="geometry" />
        </mxCell>
        <mxCell id="60da8b9f42644d3a-4" value="Developing general concepts for fmi-ls-bus that are used by all supported bus types" style="text;html=1;strokeColor=none;fillColor=none;align=center;verticalAlign=middle;whiteSpace=wrap;rounded=0;shadow=0;fontSize=14;fontColor=#000000;" parent="1" vertex="1">
          <mxGeometry x="313" y="725" width="280" height="90" as="geometry" />
        </mxCell>
        <mxCell id="60da8b9f42644d3a-6" value="" style="line;strokeWidth=2;html=1;rounded=0;shadow=0;fontSize=27;align=center;fillColor=none;strokeColor=#FFFFFF;" parent="1" vertex="1">
          <mxGeometry x="333" y="485" width="240" height="10" as="geometry" />
        </mxCell>
        <mxCell id="60da8b9f42644d3a-7" value="" style="line;strokeWidth=2;html=1;rounded=0;shadow=0;fontSize=27;align=center;fillColor=none;strokeColor=#FFFFFF;" parent="1" vertex="1">
          <mxGeometry x="333" y="705" width="240" height="10" as="geometry" />
        </mxCell>
        <mxCell id="60da8b9f42644d3a-17" value="" style="whiteSpace=wrap;html=1;rounded=1;shadow=0;strokeWidth=8;fontSize=20;align=center;fillColor=#e0efff;strokeColor=#FFFFFF;" parent="1" vertex="1">
          <mxGeometry x="596" y="405" width="280" height="430" as="geometry" />
        </mxCell>
        <mxCell id="60da8b9f42644d3a-18" value="CAN" style="text;html=1;strokeColor=none;fillColor=none;align=center;verticalAlign=middle;whiteSpace=wrap;rounded=0;shadow=0;fontSize=27;fontColor=#000000;fontStyle=1" parent="1" vertex="1">
          <mxGeometry x="596" y="425" width="280" height="60" as="geometry" />
        </mxCell>
        <mxCell id="60da8b9f42644d3a-19" value="Specification and verification of fmi-ls-bus&lt;br&gt;for CAN, CAN FD and CAN XL" style="text;html=1;strokeColor=none;fillColor=none;align=center;verticalAlign=middle;whiteSpace=wrap;rounded=0;shadow=0;fontSize=14;fontColor=#000000;" parent="1" vertex="1">
          <mxGeometry x="596" y="725" width="280" height="90" as="geometry" />
        </mxCell>
        <mxCell id="60da8b9f42644d3a-20" value="" style="line;strokeWidth=2;html=1;rounded=0;shadow=0;fontSize=27;align=center;fillColor=none;strokeColor=#FFFFFF;" parent="1" vertex="1">
          <mxGeometry x="616" y="485" width="240" height="10" as="geometry" />
        </mxCell>
        <mxCell id="60da8b9f42644d3a-21" value="" style="line;strokeWidth=2;html=1;rounded=0;shadow=0;fontSize=27;align=center;fillColor=none;strokeColor=#FFFFFF;" parent="1" vertex="1">
          <mxGeometry x="616" y="705" width="240" height="10" as="geometry" />
        </mxCell>
        <mxCell id="60da8b9f42644d3a-24" value="" style="whiteSpace=wrap;html=1;rounded=1;shadow=0;strokeWidth=8;fontSize=20;align=center;fillColor=#dae8fc;strokeColor=#ffffff;" parent="1" vertex="1">
          <mxGeometry x="876" y="405" width="280" height="430" as="geometry" />
        </mxCell>
        <mxCell id="60da8b9f42644d3a-25" value="1.0.0 Alpha" style="text;html=1;strokeColor=none;fillColor=none;align=center;verticalAlign=middle;whiteSpace=wrap;rounded=0;shadow=0;fontSize=27;fontColor=#000000;fontStyle=1" parent="1" vertex="1">
          <mxGeometry x="876" y="425" width="280" height="60" as="geometry" />
        </mxCell>
        <mxCell id="60da8b9f42644d3a-26" value="Releasing 1.0.0 Alpha version of fmi-ls-bus that is technical verified by prototypes for &lt;br&gt;CAN, CAN FD and CAN XL" style="text;html=1;strokeColor=none;fillColor=none;align=center;verticalAlign=middle;whiteSpace=wrap;rounded=0;shadow=0;fontSize=14;fontColor=#000000;" parent="1" vertex="1">
          <mxGeometry x="876" y="725" width="280" height="90" as="geometry" />
        </mxCell>
        <mxCell id="60da8b9f42644d3a-27" value="" style="line;strokeWidth=2;html=1;rounded=0;shadow=0;fontSize=27;align=center;fillColor=none;strokeColor=#FFFFFF;" parent="1" vertex="1">
          <mxGeometry x="896" y="485" width="240" height="10" as="geometry" />
        </mxCell>
        <mxCell id="60da8b9f42644d3a-28" value="" style="line;strokeWidth=2;html=1;rounded=0;shadow=0;fontSize=27;align=center;fillColor=none;strokeColor=#FFFFFF;" parent="1" vertex="1">
          <mxGeometry x="896" y="705" width="240" height="10" as="geometry" />
        </mxCell>
        <mxCell id="8I0H8yc0v7_sOOJJQ2Jv-50" value="" style="whiteSpace=wrap;html=1;rounded=1;shadow=0;strokeWidth=8;fontSize=20;align=center;fillColor=#e0efff;strokeColor=#FFFFFF;" parent="1" vertex="1">
          <mxGeometry x="1158" y="-39" width="280" height="430" as="geometry" />
        </mxCell>
        <mxCell id="8I0H8yc0v7_sOOJJQ2Jv-51" value="FlexRay" style="text;html=1;strokeColor=none;fillColor=none;align=center;verticalAlign=middle;whiteSpace=wrap;rounded=0;shadow=0;fontSize=27;fontColor=#000000;fontStyle=1" parent="1" vertex="1">
          <mxGeometry x="1166" y="-19" width="264" height="60" as="geometry" />
        </mxCell>
        <mxCell id="8I0H8yc0v7_sOOJJQ2Jv-52" value="Specification and verification of fmi-ls-bus&lt;br&gt;for FlexRay" style="text;html=1;strokeColor=none;fillColor=none;align=center;verticalAlign=middle;whiteSpace=wrap;rounded=0;shadow=0;fontSize=14;fontColor=#000000;" parent="1" vertex="1">
          <mxGeometry x="1166" y="281" width="280" height="90" as="geometry" />
        </mxCell>
        <mxCell id="8I0H8yc0v7_sOOJJQ2Jv-53" value="" style="line;strokeWidth=2;html=1;rounded=0;shadow=0;fontSize=27;align=center;fillColor=none;strokeColor=#FFFFFF;" parent="1" vertex="1">
          <mxGeometry x="1186" y="41" width="240" height="10" as="geometry" />
        </mxCell>
        <mxCell id="8I0H8yc0v7_sOOJJQ2Jv-54" value="" style="line;strokeWidth=2;html=1;rounded=0;shadow=0;fontSize=27;align=center;fillColor=none;strokeColor=#FFFFFF;" parent="1" vertex="1">
          <mxGeometry x="1186" y="261" width="240" height="10" as="geometry" />
        </mxCell>
        <mxCell id="8I0H8yc0v7_sOOJJQ2Jv-55" value="" style="whiteSpace=wrap;html=1;rounded=1;shadow=0;strokeWidth=8;fontSize=20;align=center;fillColor=#dae8fc;strokeColor=#ffffff;" parent="1" vertex="1">
          <mxGeometry x="1439" y="-39" width="280" height="430" as="geometry" />
        </mxCell>
        <mxCell id="8I0H8yc0v7_sOOJJQ2Jv-56" value="1.1.0 Alpha" style="text;html=1;strokeColor=none;fillColor=none;align=center;verticalAlign=middle;whiteSpace=wrap;rounded=0;shadow=0;fontSize=27;fontColor=#000000;fontStyle=1" parent="1" vertex="1">
          <mxGeometry x="1446" y="-19" width="264" height="60" as="geometry" />
        </mxCell>
        <mxCell id="8I0H8yc0v7_sOOJJQ2Jv-57" value="Releasing 1.1.0 Alpha version of fmi-ls-bus that is technical verified by prototypes for FlexRay" style="text;html=1;strokeColor=none;fillColor=none;align=center;verticalAlign=middle;whiteSpace=wrap;rounded=0;shadow=0;fontSize=14;fontColor=#000000;" parent="1" vertex="1">
          <mxGeometry x="1446" y="281" width="264" height="90" as="geometry" />
        </mxCell>
        <mxCell id="8I0H8yc0v7_sOOJJQ2Jv-58" value="" style="line;strokeWidth=2;html=1;rounded=0;shadow=0;fontSize=27;align=center;fillColor=none;strokeColor=#FFFFFF;" parent="1" vertex="1">
          <mxGeometry x="1466" y="41" width="240" height="10" as="geometry" />
        </mxCell>
        <mxCell id="8I0H8yc0v7_sOOJJQ2Jv-59" value="" style="line;strokeWidth=2;html=1;rounded=0;shadow=0;fontSize=27;align=center;fillColor=none;strokeColor=#FFFFFF;" parent="1" vertex="1">
          <mxGeometry x="1466" y="261" width="240" height="10" as="geometry" />
        </mxCell>
        <mxCell id="8I0H8yc0v7_sOOJJQ2Jv-60" value="" style="whiteSpace=wrap;html=1;rounded=1;shadow=0;strokeWidth=8;fontSize=20;align=center;fillColor=#C7D7FC;strokeColor=#FFFFFF;" parent="1" vertex="1">
          <mxGeometry x="1721" y="-40" width="280" height="430" as="geometry" />
        </mxCell>
        <mxCell id="8I0H8yc0v7_sOOJJQ2Jv-61" value="1.1.0 Beta" style="text;html=1;strokeColor=none;fillColor=none;align=center;verticalAlign=middle;whiteSpace=wrap;rounded=0;shadow=0;fontSize=27;fontColor=#000000;fontStyle=1" parent="1" vertex="1">
          <mxGeometry x="1725" y="-19" width="264" height="60" as="geometry" />
        </mxCell>
        <mxCell id="8I0H8yc0v7_sOOJJQ2Jv-62" value="Releasing 1.1.0 Beta version of fmi-ls-bus that is crosschecked by several importers from different vendors" style="text;html=1;strokeColor=none;fillColor=none;align=center;verticalAlign=middle;whiteSpace=wrap;rounded=0;shadow=0;fontSize=14;fontColor=#000000;" parent="1" vertex="1">
          <mxGeometry x="1729" y="281" width="260" height="90" as="geometry" />
        </mxCell>
        <mxCell id="8I0H8yc0v7_sOOJJQ2Jv-63" value="" style="line;strokeWidth=2;html=1;rounded=0;shadow=0;fontSize=27;align=center;fillColor=none;strokeColor=#FFFFFF;" parent="1" vertex="1">
          <mxGeometry x="1745" y="41" width="240" height="10" as="geometry" />
        </mxCell>
        <mxCell id="8I0H8yc0v7_sOOJJQ2Jv-64" value="" style="line;strokeWidth=2;html=1;rounded=0;shadow=0;fontSize=27;align=center;fillColor=none;strokeColor=#FFFFFF;" parent="1" vertex="1">
          <mxGeometry x="1745" y="261" width="240" height="10" as="geometry" />
        </mxCell>
        <mxCell id="8I0H8yc0v7_sOOJJQ2Jv-73" value="" style="whiteSpace=wrap;html=1;rounded=1;shadow=0;strokeWidth=8;fontSize=20;align=center;fillColor=#fff2cc;strokeColor=#FFFFFF;fillStyle=auto;glass=0;" parent="1" vertex="1">
          <mxGeometry x="876" y="-39" width="280" height="430" as="geometry" />
        </mxCell>
        <mxCell id="8I0H8yc0v7_sOOJJQ2Jv-74" value="FlexRay Concept" style="text;html=1;strokeColor=none;fillColor=none;align=center;verticalAlign=middle;whiteSpace=wrap;rounded=0;shadow=0;fontSize=27;fontColor=#000000;fontStyle=1" parent="1" vertex="1">
          <mxGeometry x="878" y="-19" width="280" height="60" as="geometry" />
        </mxCell>
        <mxCell id="8I0H8yc0v7_sOOJJQ2Jv-75" value="Developing concepts FlexRay support of fmi-ls-bus" style="text;html=1;strokeColor=none;fillColor=none;align=center;verticalAlign=middle;whiteSpace=wrap;rounded=0;shadow=0;fontSize=14;fontColor=#000000;" parent="1" vertex="1">
          <mxGeometry x="878" y="281" width="280" height="90" as="geometry" />
        </mxCell>
        <mxCell id="8I0H8yc0v7_sOOJJQ2Jv-76" value="" style="line;strokeWidth=2;html=1;rounded=0;shadow=0;fontSize=27;align=center;fillColor=none;strokeColor=#FFFFFF;" parent="1" vertex="1">
          <mxGeometry x="898" y="41" width="240" height="10" as="geometry" />
        </mxCell>
        <mxCell id="8I0H8yc0v7_sOOJJQ2Jv-77" value="" style="line;strokeWidth=2;html=1;rounded=0;shadow=0;fontSize=27;align=center;fillColor=none;strokeColor=#FFFFFF;" parent="1" vertex="1">
          <mxGeometry x="898" y="261" width="240" height="10" as="geometry" />
        </mxCell>
        <mxCell id="8I0H8yc0v7_sOOJJQ2Jv-101" value="" style="endArrow=classic;html=1;rounded=0;strokeWidth=10;" parent="1" edge="1">
          <mxGeometry relative="1" as="geometry">
            <mxPoint x="874" y="602" as="sourcePoint" />
            <mxPoint x="874" y="202" as="targetPoint" />
          </mxGeometry>
        </mxCell>
        <mxCell id="8lI5MKsPfhPDp3e18J9--6" value="" style="whiteSpace=wrap;html=1;rounded=1;shadow=0;strokeWidth=8;fontSize=20;align=center;fillColor=#e0efff;strokeColor=#FFFFFF;" parent="1" vertex="1">
          <mxGeometry x="1158" y="-481" width="280" height="430" as="geometry" />
        </mxCell>
        <mxCell id="8lI5MKsPfhPDp3e18J9--7" value="LIN/Ethernet" style="text;html=1;strokeColor=none;fillColor=none;align=center;verticalAlign=middle;whiteSpace=wrap;rounded=0;shadow=0;fontSize=27;fontColor=#000000;fontStyle=1" parent="1" vertex="1">
          <mxGeometry x="1169" y="-461" width="261" height="60" as="geometry" />
        </mxCell>
        <mxCell id="8lI5MKsPfhPDp3e18J9--8" value="Specification and verification of fmi-ls-bus&lt;br&gt;for&amp;nbsp;LIN/Ethernet" style="text;html=1;strokeColor=none;fillColor=none;align=center;verticalAlign=middle;whiteSpace=wrap;rounded=0;shadow=0;fontSize=14;fontColor=#000000;" parent="1" vertex="1">
          <mxGeometry x="1169" y="-161" width="261" height="90" as="geometry" />
        </mxCell>
        <mxCell id="8lI5MKsPfhPDp3e18J9--9" value="" style="line;strokeWidth=2;html=1;rounded=0;shadow=0;fontSize=27;align=center;fillColor=none;strokeColor=#FFFFFF;" parent="1" vertex="1">
          <mxGeometry x="1189" y="-401" width="240" height="10" as="geometry" />
        </mxCell>
        <mxCell id="8lI5MKsPfhPDp3e18J9--10" value="" style="line;strokeWidth=2;html=1;rounded=0;shadow=0;fontSize=27;align=center;fillColor=none;strokeColor=#FFFFFF;" parent="1" vertex="1">
          <mxGeometry x="1189" y="-181" width="240" height="10" as="geometry" />
        </mxCell>
        <mxCell id="8lI5MKsPfhPDp3e18J9--11" value="" style="whiteSpace=wrap;html=1;rounded=1;shadow=0;strokeWidth=8;fontSize=20;align=center;fillColor=#dae8fc;strokeColor=#ffffff;" parent="1" vertex="1">
          <mxGeometry x="1439" y="-481" width="280" height="430" as="geometry" />
        </mxCell>
        <mxCell id="8lI5MKsPfhPDp3e18J9--12" value="1.2.0 Alpha" style="text;html=1;strokeColor=none;fillColor=none;align=center;verticalAlign=middle;whiteSpace=wrap;rounded=0;shadow=0;fontSize=27;fontColor=#000000;fontStyle=1" parent="1" vertex="1">
          <mxGeometry x="1449" y="-461" width="261" height="60" as="geometry" />
        </mxCell>
        <mxCell id="8lI5MKsPfhPDp3e18J9--13" value="Releasing 1.2.0 Alpha version of fmi-ls-bus that is technical verified by prototypes for &lt;br&gt;LIN/Ethernet" style="text;html=1;strokeColor=none;fillColor=none;align=center;verticalAlign=middle;whiteSpace=wrap;rounded=0;shadow=0;fontSize=14;fontColor=#000000;" parent="1" vertex="1">
          <mxGeometry x="1449" y="-161" width="261" height="90" as="geometry" />
        </mxCell>
        <mxCell id="8lI5MKsPfhPDp3e18J9--14" value="" style="line;strokeWidth=2;html=1;rounded=0;shadow=0;fontSize=27;align=center;fillColor=none;strokeColor=#FFFFFF;" parent="1" vertex="1">
          <mxGeometry x="1469" y="-401" width="240" height="10" as="geometry" />
        </mxCell>
        <mxCell id="8lI5MKsPfhPDp3e18J9--15" value="" style="line;strokeWidth=2;html=1;rounded=0;shadow=0;fontSize=27;align=center;fillColor=none;strokeColor=#FFFFFF;" parent="1" vertex="1">
          <mxGeometry x="1469" y="-181" width="240" height="10" as="geometry" />
        </mxCell>
        <mxCell id="8lI5MKsPfhPDp3e18J9--16" value="" style="whiteSpace=wrap;html=1;rounded=1;shadow=0;strokeWidth=8;fontSize=20;align=center;fillColor=#C7D7FC;strokeColor=#FFFFFF;" parent="1" vertex="1">
          <mxGeometry x="1721" y="-481" width="280" height="430" as="geometry" />
        </mxCell>
        <mxCell id="8lI5MKsPfhPDp3e18J9--17" value="1.2.0 Beta" style="text;html=1;strokeColor=none;fillColor=none;align=center;verticalAlign=middle;whiteSpace=wrap;rounded=0;shadow=0;fontSize=27;fontColor=#000000;fontStyle=1" parent="1" vertex="1">
          <mxGeometry x="1728" y="-461" width="261" height="56" as="geometry" />
        </mxCell>
        <mxCell id="8lI5MKsPfhPDp3e18J9--18" value="Releasing 1.2.0 Beta version of fmi-ls-bus that is crosschecked by several importers from different vendors" style="text;html=1;strokeColor=none;fillColor=none;align=center;verticalAlign=middle;whiteSpace=wrap;rounded=0;shadow=0;fontSize=14;fontColor=#000000;" parent="1" vertex="1">
          <mxGeometry x="1728" y="-161" width="261" height="90" as="geometry" />
        </mxCell>
        <mxCell id="8lI5MKsPfhPDp3e18J9--19" value="" style="line;strokeWidth=2;html=1;rounded=0;shadow=0;fontSize=27;align=center;fillColor=none;strokeColor=#FFFFFF;" parent="1" vertex="1">
          <mxGeometry x="1748" y="-401" width="240" height="10" as="geometry" />
        </mxCell>
        <mxCell id="8lI5MKsPfhPDp3e18J9--20" value="" style="line;strokeWidth=2;html=1;rounded=0;shadow=0;fontSize=27;align=center;fillColor=none;strokeColor=#FFFFFF;" parent="1" vertex="1">
          <mxGeometry x="1748" y="-181" width="240" height="10" as="geometry" />
        </mxCell>
        <mxCell id="8lI5MKsPfhPDp3e18J9--23" value="" style="whiteSpace=wrap;html=1;rounded=1;shadow=0;strokeWidth=8;fontSize=20;align=center;fillColor=#fff2cc;strokeColor=#FFFFFF;fillStyle=auto;glass=0;" parent="1" vertex="1">
          <mxGeometry x="876" y="-481" width="280" height="430" as="geometry" />
        </mxCell>
        <mxCell id="8lI5MKsPfhPDp3e18J9--24" value="LIN/Ethernet&lt;br&gt;Concepts" style="text;html=1;strokeColor=none;fillColor=none;align=center;verticalAlign=middle;whiteSpace=wrap;rounded=0;shadow=0;fontSize=27;fontColor=#000000;fontStyle=1" parent="1" vertex="1">
          <mxGeometry x="879" y="-461" width="280" height="60" as="geometry" />
        </mxCell>
        <mxCell id="8lI5MKsPfhPDp3e18J9--25" value="Developing concepts LIN/Ethernet support of fmi-ls-bus" style="text;html=1;strokeColor=none;fillColor=none;align=center;verticalAlign=middle;whiteSpace=wrap;rounded=0;shadow=0;fontSize=14;fontColor=#000000;" parent="1" vertex="1">
          <mxGeometry x="890" y="-161" width="250" height="90" as="geometry" />
        </mxCell>
        <mxCell id="8lI5MKsPfhPDp3e18J9--26" value="" style="line;strokeWidth=2;html=1;rounded=0;shadow=0;fontSize=27;align=center;fillColor=none;strokeColor=#FFFFFF;" parent="1" vertex="1">
          <mxGeometry x="899" y="-401" width="240" height="10" as="geometry" />
        </mxCell>
        <mxCell id="8lI5MKsPfhPDp3e18J9--27" value="" style="line;strokeWidth=2;html=1;rounded=0;shadow=0;fontSize=27;align=center;fillColor=none;strokeColor=#FFFFFF;" parent="1" vertex="1">
          <mxGeometry x="899" y="-181" width="240" height="10" as="geometry" />
        </mxCell>
        <mxCell id="8lI5MKsPfhPDp3e18J9--29" value="" style="ellipse;whiteSpace=wrap;html=1;rounded=0;shadow=0;strokeWidth=6;fontSize=14;align=center;fillColor=#A20025;strokeColor=#FFFFFF;fontColor=#FFFFFF;" parent="1" vertex="1">
          <mxGeometry x="829" y="-330" width="90" height="90" as="geometry" />
        </mxCell>
        <mxCell id="8lI5MKsPfhPDp3e18J9--36" value="" style="endArrow=classic;html=1;rounded=0;strokeWidth=10;" parent="1" edge="1">
          <mxGeometry relative="1" as="geometry">
            <mxPoint x="874" y="157" as="sourcePoint" />
            <mxPoint x="874" y="-243" as="targetPoint" />
          </mxGeometry>
        </mxCell>
        <mxCell id="8I0H8yc0v7_sOOJJQ2Jv-80" value="" style="ellipse;whiteSpace=wrap;html=1;rounded=0;shadow=0;strokeWidth=6;fontSize=14;align=center;fillColor=#008A00;strokeColor=#FFFFFF;fontColor=#FFFFFF;" parent="1" vertex="1">
          <mxGeometry x="829" y="112" width="90" height="90" as="geometry" />
        </mxCell>
        <mxCell id="8lI5MKsPfhPDp3e18J9--37" value="" style="group" parent="1" vertex="1" connectable="0">
          <mxGeometry x="1722" y="405" width="848" height="430" as="geometry" />
        </mxCell>
        <mxCell id="8I0H8yc0v7_sOOJJQ2Jv-85" value="Maintenance of fmi-ls-bus version 1.0.0&amp;nbsp;" style="text;html=1;strokeColor=none;fillColor=none;align=center;verticalAlign=middle;whiteSpace=wrap;rounded=0;shadow=0;fontSize=14;fontColor=#000000;" parent="8lI5MKsPfhPDp3e18J9--37" vertex="1">
          <mxGeometry x="196.79146299483648" y="320" width="189.35261044176707" height="90" as="geometry" />
        </mxCell>
        <mxCell id="8lI5MKsPfhPDp3e18J9--59" value="" style="group" parent="8lI5MKsPfhPDp3e18J9--37" vertex="1" connectable="0">
          <mxGeometry width="847.9999999999998" height="430" as="geometry" />
        </mxCell>
        <mxCell id="8I0H8yc0v7_sOOJJQ2Jv-83" value="" style="whiteSpace=wrap;html=1;rounded=1;shadow=0;strokeWidth=8;fontSize=20;align=center;fillColor=#e1d5e7;strokeColor=#FFFFFF;" parent="8lI5MKsPfhPDp3e18J9--59" vertex="1">
          <mxGeometry width="847.9999999999998" height="430" as="geometry" />
        </mxCell>
        <mxCell id="8I0H8yc0v7_sOOJJQ2Jv-84" value="Maintenance" style="text;html=1;strokeColor=none;fillColor=none;align=center;verticalAlign=middle;whiteSpace=wrap;rounded=0;shadow=0;fontSize=27;fontColor=#000000;fontStyle=1" parent="8lI5MKsPfhPDp3e18J9--59" vertex="1">
          <mxGeometry x="292.76190476190453" y="20" width="282.66666666666663" height="60" as="geometry" />
        </mxCell>
        <mxCell id="8I0H8yc0v7_sOOJJQ2Jv-86" value="" style="line;strokeWidth=2;html=1;rounded=0;shadow=0;fontSize=27;align=center;fillColor=none;strokeColor=#FFFFFF;" parent="8lI5MKsPfhPDp3e18J9--59" vertex="1">
          <mxGeometry x="30.28571428571427" y="80" width="787.428571428571" height="10" as="geometry" />
        </mxCell>
        <mxCell id="8I0H8yc0v7_sOOJJQ2Jv-87" value="" style="line;strokeWidth=2;html=1;rounded=0;shadow=0;fontSize=27;align=center;fillColor=none;strokeColor=#FFFFFF;" parent="8lI5MKsPfhPDp3e18J9--59" vertex="1">
          <mxGeometry x="30.28571428571427" y="300" width="787.428571428571" height="10" as="geometry" />
        </mxCell>
        <mxCell id="dk6QmXpyueFNErDzX7yQ-1" value="Maintenance of fmi-ls-bus &lt;br&gt;version 1.0.0&amp;nbsp;" style="text;html=1;strokeColor=none;fillColor=none;align=center;verticalAlign=middle;whiteSpace=wrap;rounded=0;shadow=0;fontSize=14;fontColor=#000000;" parent="8lI5MKsPfhPDp3e18J9--59" vertex="1">
          <mxGeometry x="30.288612440191383" y="310" width="791.3381818181816" height="90" as="geometry" />
        </mxCell>
        <mxCell id="khZST9RxEuUmSbnh5kG9-13" value="" style="endArrow=classic;html=1;rounded=0;strokeWidth=10;" parent="1" edge="1">
          <mxGeometry relative="1" as="geometry">
            <mxPoint x="200" y="600" as="sourcePoint" />
            <mxPoint x="2650" y="600" as="targetPoint" />
          </mxGeometry>
        </mxCell>
        <mxCell id="60da8b9f42644d3a-38" value="1.0.0&lt;br style=&quot;font-size: 22px;&quot;&gt;Beta" style="ellipse;whiteSpace=wrap;html=1;rounded=0;shadow=0;strokeWidth=6;fontSize=22;align=center;fillColor=#BFB4A9;strokeColor=#FFFFFF;fontColor=#FFFFFF;gradientColor=none;fontStyle=1" parent="1" vertex="1">
          <mxGeometry x="1394" y="556" width="90" height="90" as="geometry" />
        </mxCell>
        <mxCell id="60da8b9f42644d3a-36" value="1.0.0&lt;br style=&quot;font-size: 22px;&quot;&gt;Alpha" style="ellipse;whiteSpace=wrap;html=1;rounded=0;shadow=0;strokeWidth=6;fontSize=22;align=center;fillColor=#A20025;strokeColor=#FFFFFF;fontColor=#ffffff;fontStyle=1" parent="1" vertex="1">
          <mxGeometry x="1112" y="556" width="90" height="90" as="geometry" />
        </mxCell>
        <mxCell id="60da8b9f42644d3a-29" value="" style="ellipse;whiteSpace=wrap;html=1;rounded=0;shadow=0;strokeWidth=6;fontSize=14;align=center;fillColor=#008A00;strokeColor=#FFFFFF;fontColor=#ffffff;" parent="1" vertex="1">
          <mxGeometry x="829" y="556" width="90" height="90" as="geometry" />
        </mxCell>
        <mxCell id="60da8b9f42644d3a-8" value="" style="ellipse;whiteSpace=wrap;html=1;rounded=0;shadow=0;strokeWidth=6;fontSize=14;align=center;fillColor=#008a00;strokeColor=#FFFFFF;fontColor=#ffffff;" parent="1" vertex="1">
          <mxGeometry x="268" y="556" width="90" height="90" as="geometry" />
        </mxCell>
        <mxCell id="60da8b9f42644d3a-22" value="" style="ellipse;whiteSpace=wrap;html=1;rounded=0;shadow=0;strokeWidth=6;fontSize=14;align=center;fillColor=#008A00;strokeColor=#FFFFFF;fontColor=#FFFFFF;" parent="1" vertex="1">
          <mxGeometry x="550" y="556" width="90" height="90" as="geometry" />
        </mxCell>
        <mxCell id="60da8b9f42644d3a-32" value="1.0.0 Beta" style="text;html=1;strokeColor=none;fillColor=none;align=center;verticalAlign=middle;whiteSpace=wrap;rounded=0;shadow=0;fontSize=27;fontColor=#000000;fontStyle=1" parent="1" vertex="1">
          <mxGeometry x="1155" y="425" width="280" height="60" as="geometry" />
        </mxCell>
        <mxCell id="60da8b9f42644d3a-33" value="Releasing 1.0.0 Beta version of fmi-ls-bus that is crosschecked by several importers from different vendors" style="text;html=1;strokeColor=none;fillColor=none;align=center;verticalAlign=middle;whiteSpace=wrap;rounded=0;shadow=0;fontSize=14;fontColor=#000000;" parent="1" vertex="1">
          <mxGeometry x="1156" y="725" width="280" height="90" as="geometry" />
        </mxCell>
        <mxCell id="60da8b9f42644d3a-34" value="" style="line;strokeWidth=2;html=1;rounded=0;shadow=0;fontSize=27;align=center;fillColor=none;strokeColor=#FFFFFF;" parent="1" vertex="1">
          <mxGeometry x="1175" y="485" width="240" height="10" as="geometry" />
        </mxCell>
        <mxCell id="60da8b9f42644d3a-35" value="" style="line;strokeWidth=2;html=1;rounded=0;shadow=0;fontSize=27;align=center;fillColor=none;strokeColor=#FFFFFF;" parent="1" vertex="1">
          <mxGeometry x="1175" y="705" width="240" height="10" as="geometry" />
        </mxCell>
        <mxCell id="8lI5MKsPfhPDp3e18J9--1" value="" style="whiteSpace=wrap;html=1;rounded=1;shadow=0;strokeWidth=8;fontSize=20;align=center;fillColor=#AFD0FD;strokeColor=#FFFFFF;" parent="1" vertex="1">
          <mxGeometry x="2001" y="-481" width="280" height="430" as="geometry" />
        </mxCell>
        <mxCell id="8lI5MKsPfhPDp3e18J9--2" value="1.2.0 Release" style="text;html=1;strokeColor=none;fillColor=none;align=center;verticalAlign=middle;whiteSpace=wrap;rounded=0;shadow=0;fontSize=27;fontColor=#000000;fontStyle=1" parent="1" vertex="1">
          <mxGeometry x="2008" y="-461" width="261" height="60" as="geometry" />
        </mxCell>
        <mxCell id="8lI5MKsPfhPDp3e18J9--3" value="Releasing 1.2.0 version of fmi-ls-bus that&lt;br style=&quot;border-color: var(--border-color);&quot;&gt;is technical and formal verified&amp;nbsp;&lt;br style=&quot;border-color: var(--border-color);&quot;&gt;CAN, CAN FD, CAN XL, LIN, Ethernet and FlexRay" style="text;html=1;strokeColor=none;fillColor=none;align=center;verticalAlign=middle;whiteSpace=wrap;rounded=0;shadow=0;fontSize=14;fontColor=#000000;" parent="1" vertex="1">
          <mxGeometry x="2008" y="-161" width="261" height="90" as="geometry" />
        </mxCell>
        <mxCell id="8lI5MKsPfhPDp3e18J9--4" value="" style="line;strokeWidth=2;html=1;rounded=0;shadow=0;fontSize=27;align=center;fillColor=none;strokeColor=#FFFFFF;" parent="1" vertex="1">
          <mxGeometry x="2028" y="-401" width="240" height="10" as="geometry" />
        </mxCell>
        <mxCell id="8lI5MKsPfhPDp3e18J9--5" value="" style="line;strokeWidth=2;html=1;rounded=0;shadow=0;fontSize=27;align=center;fillColor=none;strokeColor=#FFFFFF;" parent="1" vertex="1">
          <mxGeometry x="2028" y="-181" width="240" height="10" as="geometry" />
        </mxCell>
        <mxCell id="8lI5MKsPfhPDp3e18J9--53" value="" style="whiteSpace=wrap;html=1;rounded=1;shadow=0;strokeWidth=8;fontSize=20;align=center;fillColor=#afd0fd;strokeColor=#FFFFFF;" parent="1" vertex="1">
          <mxGeometry x="2001" y="-36" width="280" height="430" as="geometry" />
        </mxCell>
        <mxCell id="8lI5MKsPfhPDp3e18J9--54" value="1.1.0 Release" style="text;html=1;strokeColor=none;fillColor=none;align=center;verticalAlign=middle;whiteSpace=wrap;rounded=0;shadow=0;fontSize=27;fontColor=#000000;fontStyle=1" parent="1" vertex="1">
          <mxGeometry x="2009" y="-17" width="260" height="60" as="geometry" />
        </mxCell>
        <mxCell id="8lI5MKsPfhPDp3e18J9--55" value="Releasing 1.1.0 version of fmi-ls-bus that&lt;br style=&quot;border-color: var(--border-color);&quot;&gt;is technical and formal verified&amp;nbsp;&lt;br style=&quot;border-color: var(--border-color);&quot;&gt;CAN, CAN FD, CAN XL and FlexRay" style="text;html=1;strokeColor=none;fillColor=none;align=center;verticalAlign=middle;whiteSpace=wrap;rounded=0;shadow=0;fontSize=14;fontColor=#000000;" parent="1" vertex="1">
          <mxGeometry x="2002" y="283" width="280" height="90" as="geometry" />
        </mxCell>
        <mxCell id="8lI5MKsPfhPDp3e18J9--56" value="" style="line;strokeWidth=2;html=1;rounded=0;shadow=0;fontSize=27;align=center;fillColor=none;strokeColor=#FFFFFF;" parent="1" vertex="1">
          <mxGeometry x="2022" y="43" width="240" height="10" as="geometry" />
        </mxCell>
        <mxCell id="8lI5MKsPfhPDp3e18J9--57" value="" style="line;strokeWidth=2;html=1;rounded=0;shadow=0;fontSize=27;align=center;fillColor=none;strokeColor=#FFFFFF;" parent="1" vertex="1">
          <mxGeometry x="2022" y="263" width="240" height="10" as="geometry" />
        </mxCell>
        <mxCell id="8lI5MKsPfhPDp3e18J9--60" value="1.0.0&lt;br style=&quot;font-size: 22px;&quot;&gt;Final" style="ellipse;whiteSpace=wrap;html=1;rounded=0;shadow=0;strokeWidth=6;fontSize=22;align=center;fillColor=#BFB4A9;strokeColor=#FFFFFF;fontColor=#FFFFFF;gradientColor=none;fontStyle=1" parent="1" vertex="1">
          <mxGeometry x="1676" y="557" width="90" height="90" as="geometry" />
        </mxCell>
        <mxCell id="dk6QmXpyueFNErDzX7yQ-2" value="" style="group" parent="1" vertex="1" connectable="0">
          <mxGeometry x="2282" y="-39" width="287" height="430" as="geometry" />
        </mxCell>
        <mxCell id="8I0H8yc0v7_sOOJJQ2Jv-45" value="" style="whiteSpace=wrap;html=1;rounded=1;shadow=0;strokeWidth=8;fontSize=20;align=center;fillColor=#e1d5e7;strokeColor=#FFFFFF;" parent="dk6QmXpyueFNErDzX7yQ-2" vertex="1">
          <mxGeometry x="1.0213523131672597" width="285.97864768683274" height="430" as="geometry" />
        </mxCell>
        <mxCell id="8I0H8yc0v7_sOOJJQ2Jv-46" value="Maintenance" style="text;html=1;strokeColor=none;fillColor=none;align=center;verticalAlign=middle;whiteSpace=wrap;rounded=0;shadow=0;fontSize=27;fontColor=#000000;fontStyle=1" parent="dk6QmXpyueFNErDzX7yQ-2" vertex="1">
          <mxGeometry x="1.0070175438596491" y="20" width="285.97864768683274" height="60" as="geometry" />
        </mxCell>
        <mxCell id="8I0H8yc0v7_sOOJJQ2Jv-47" value="Maintenance of fmi-ls-bus &lt;br&gt;version 1.1.0&amp;nbsp;" style="text;html=1;strokeColor=none;fillColor=none;align=center;verticalAlign=middle;whiteSpace=wrap;rounded=0;shadow=0;fontSize=14;fontColor=#000000;" parent="dk6QmXpyueFNErDzX7yQ-2" vertex="1">
          <mxGeometry x="1.0070175438596491" y="320" width="285.97864768683274" height="90" as="geometry" />
        </mxCell>
        <mxCell id="8I0H8yc0v7_sOOJJQ2Jv-48" value="" style="line;strokeWidth=2;html=1;rounded=0;shadow=0;fontSize=27;align=center;fillColor=none;strokeColor=#FFFFFF;" parent="dk6QmXpyueFNErDzX7yQ-2" vertex="1">
          <mxGeometry x="21.434063807204847" y="80" width="245.12455516014234" height="10" as="geometry" />
        </mxCell>
        <mxCell id="8I0H8yc0v7_sOOJJQ2Jv-49" value="" style="line;strokeWidth=2;html=1;rounded=0;shadow=0;fontSize=27;align=center;fillColor=none;strokeColor=#FFFFFF;" parent="dk6QmXpyueFNErDzX7yQ-2" vertex="1">
          <mxGeometry x="21.434063807204847" y="300" width="245.12455516014234" height="10" as="geometry" />
        </mxCell>
        <mxCell id="8I0H8yc0v7_sOOJJQ2Jv-78" value="" style="endArrow=classic;html=1;rounded=0;strokeWidth=10;" parent="1" source="8I0H8yc0v7_sOOJJQ2Jv-80" edge="1">
          <mxGeometry relative="1" as="geometry">
            <mxPoint x="762" y="156" as="sourcePoint" />
            <mxPoint x="2651" y="156" as="targetPoint" />
          </mxGeometry>
        </mxCell>
        <mxCell id="8lI5MKsPfhPDp3e18J9--58" value="1.1.0&lt;br&gt;Beta" style="ellipse;whiteSpace=wrap;html=1;rounded=0;shadow=0;strokeWidth=6;fontSize=22;align=center;fillColor=#BFB4A9;strokeColor=#FFFFFF;fontColor=#ffffff;fontStyle=1" parent="1" vertex="1">
          <mxGeometry x="1956" y="114" width="90" height="90" as="geometry" />
        </mxCell>
        <mxCell id="8I0H8yc0v7_sOOJJQ2Jv-69" value="1.1.0&lt;br&gt;Alpha" style="ellipse;whiteSpace=wrap;html=1;rounded=0;shadow=0;strokeWidth=6;fontSize=22;align=center;fillColor=#BFB4A9;strokeColor=#FFFFFF;fontColor=#ffffff;fontStyle=1" parent="1" vertex="1">
          <mxGeometry x="1676" y="112" width="90" height="90" as="geometry" />
        </mxCell>
        <mxCell id="8I0H8yc0v7_sOOJJQ2Jv-67" value="" style="ellipse;whiteSpace=wrap;html=1;rounded=0;shadow=0;strokeWidth=6;fontSize=14;align=center;fillColor=#008A00;strokeColor=#FFFFFF;fontColor=#FFFFFF;" parent="1" vertex="1">
          <mxGeometry x="1112" y="112" width="90" height="90" as="geometry" />
        </mxCell>
        <mxCell id="8I0H8yc0v7_sOOJJQ2Jv-68" value="" style="ellipse;whiteSpace=wrap;html=1;rounded=0;shadow=0;strokeWidth=6;fontSize=22;align=center;fillColor=#A20025;strokeColor=#FFFFFF;fontColor=#ffffff;fontStyle=1" parent="1" vertex="1">
          <mxGeometry x="1394" y="112" width="90" height="90" as="geometry" />
        </mxCell>
        <mxCell id="8I0H8yc0v7_sOOJJQ2Jv-70" value="&lt;span style=&quot;font-size: 22px; font-weight: 700;&quot;&gt;1.1.0&lt;/span&gt;&lt;br style=&quot;font-size: 22px; font-weight: 700;&quot;&gt;&lt;span style=&quot;font-size: 22px; font-weight: 700;&quot;&gt;Final&lt;/span&gt;" style="ellipse;whiteSpace=wrap;html=1;rounded=0;shadow=0;strokeWidth=6;fontSize=14;align=center;fillColor=#BFB4A9;strokeColor=#FFFFFF;fontColor=#FFFFFF;gradientColor=none;" parent="1" vertex="1">
          <mxGeometry x="2237" y="112" width="90" height="90" as="geometry" />
        </mxCell>
        <mxCell id="8lI5MKsPfhPDp3e18J9--48" value="" style="whiteSpace=wrap;html=1;rounded=1;shadow=0;strokeWidth=8;fontSize=20;align=center;fillColor=#E1D5E7;strokeColor=#FFFFFF;" parent="1" vertex="1">
          <mxGeometry x="2282" y="-480" width="287" height="430" as="geometry" />
        </mxCell>
        <mxCell id="8lI5MKsPfhPDp3e18J9--49" value="Maintenance" style="text;html=1;strokeColor=none;fillColor=none;align=center;verticalAlign=middle;whiteSpace=wrap;rounded=0;shadow=0;fontSize=27;fontColor=#000000;fontStyle=1" parent="1" vertex="1">
          <mxGeometry x="2291" y="-460" width="258" height="60" as="geometry" />
        </mxCell>
        <mxCell id="8lI5MKsPfhPDp3e18J9--50" value="Maintenance of fmi-ls-bus&lt;br&gt;version 1.2.0&amp;nbsp;" style="text;html=1;strokeColor=none;fillColor=none;align=center;verticalAlign=middle;whiteSpace=wrap;rounded=0;shadow=0;fontSize=14;fontColor=#000000;" parent="1" vertex="1">
          <mxGeometry x="2291" y="-160" width="268" height="90" as="geometry" />
        </mxCell>
        <mxCell id="8lI5MKsPfhPDp3e18J9--51" value="" style="line;strokeWidth=2;html=1;rounded=0;shadow=0;fontSize=27;align=center;fillColor=none;strokeColor=#FFFFFF;" parent="1" vertex="1">
          <mxGeometry x="2310.8571428571427" y="-400" width="238.28571428571428" height="10" as="geometry" />
        </mxCell>
        <mxCell id="8lI5MKsPfhPDp3e18J9--52" value="" style="line;strokeWidth=2;html=1;rounded=0;shadow=0;fontSize=27;align=center;fillColor=none;strokeColor=#FFFFFF;" parent="1" vertex="1">
          <mxGeometry x="2310.8571428571427" y="-180" width="238.28571428571428" height="10" as="geometry" />
        </mxCell>
        <mxCell id="8lI5MKsPfhPDp3e18J9--28" value="" style="endArrow=classic;html=1;rounded=0;strokeWidth=10;" parent="1" source="8lI5MKsPfhPDp3e18J9--29" edge="1">
          <mxGeometry relative="1" as="geometry">
            <mxPoint x="763" y="-286" as="sourcePoint" />
            <mxPoint x="2650" y="-286" as="targetPoint" />
          </mxGeometry>
        </mxCell>
        <mxCell id="8lI5MKsPfhPDp3e18J9--30" value="1.2.0&lt;br style=&quot;font-size: 22px;&quot;&gt;Final" style="ellipse;whiteSpace=wrap;html=1;rounded=0;shadow=0;strokeWidth=6;fontSize=22;align=center;fillColor=#BFB4A9;strokeColor=#FFFFFF;fontColor=#FFFFFF;fontStyle=1" parent="1" vertex="1">
          <mxGeometry x="2237" y="-330" width="90" height="90" as="geometry" />
        </mxCell>
        <mxCell id="8lI5MKsPfhPDp3e18J9--34" value="1.2.0&lt;br style=&quot;font-size: 22px;&quot;&gt;Beta" style="ellipse;whiteSpace=wrap;html=1;rounded=0;shadow=0;strokeWidth=6;fontSize=22;align=center;fillColor=#BFB4A9;strokeColor=#FFFFFF;fontColor=#FFFFFF;gradientColor=none;fontStyle=1" parent="1" vertex="1">
          <mxGeometry x="1956" y="-330" width="90" height="90" as="geometry" />
        </mxCell>
        <mxCell id="8lI5MKsPfhPDp3e18J9--33" value="1.2.0&lt;br style=&quot;font-size: 22px;&quot;&gt;Alpha" style="ellipse;whiteSpace=wrap;html=1;rounded=0;shadow=0;strokeWidth=6;fontSize=22;align=center;fillColor=#BFB4A9;strokeColor=#FFFFFF;fontColor=#ffffff;fontStyle=1" parent="1" vertex="1">
          <mxGeometry x="1676" y="-330" width="90" height="90" as="geometry" />
        </mxCell>
        <mxCell id="8lI5MKsPfhPDp3e18J9--32" value="" style="ellipse;whiteSpace=wrap;html=1;rounded=0;shadow=0;strokeWidth=6;fontSize=14;align=center;fillColor=#BFB4A9;strokeColor=#FFFFFF;fontColor=#ffffff;" parent="1" vertex="1">
          <mxGeometry x="1394" y="-330" width="90" height="90" as="geometry" />
        </mxCell>
        <mxCell id="8lI5MKsPfhPDp3e18J9--31" value="" style="ellipse;whiteSpace=wrap;html=1;rounded=0;shadow=0;strokeWidth=6;fontSize=14;align=center;fillColor=#BFB4A9;strokeColor=#FFFFFF;fontColor=#FFFFFF;" parent="1" vertex="1">
          <mxGeometry x="1112" y="-330" width="90" height="90" as="geometry" />
        </mxCell>
        <mxCell id="6XYQarOX-lOYf3YcvKte-9" value="" style="group" parent="1" vertex="1" connectable="0">
          <mxGeometry x="136" y="-481" width="440" height="315" as="geometry" />
        </mxCell>
        <mxCell id="6XYQarOX-lOYf3YcvKte-1" value="" style="rounded=1;whiteSpace=wrap;html=1;" parent="6XYQarOX-lOYf3YcvKte-9" vertex="1">
          <mxGeometry width="440" height="315" as="geometry" />
        </mxCell>
        <mxCell id="6XYQarOX-lOYf3YcvKte-2" value="" style="ellipse;whiteSpace=wrap;html=1;rounded=0;shadow=0;strokeWidth=6;fontSize=14;align=center;fillColor=#008a00;strokeColor=#FFFFFF;fontColor=#ffffff;" parent="6XYQarOX-lOYf3YcvKte-9" vertex="1">
          <mxGeometry x="34.28571428571428" y="71.1054973821989" width="68" height="68" as="geometry" />
        </mxCell>
        <mxCell id="6XYQarOX-lOYf3YcvKte-3" value="Already achieved milestones" style="text;html=1;align=left;verticalAlign=middle;whiteSpace=wrap;rounded=0;fontSize=20;" parent="6XYQarOX-lOYf3YcvKte-9" vertex="1">
          <mxGeometry x="102.85714285714283" y="77.61780104712045" width="291.4285714285714" height="54.973821989528794" as="geometry" />
        </mxCell>
        <mxCell id="6XYQarOX-lOYf3YcvKte-4" value="Milestones currently in progress" style="text;html=1;align=left;verticalAlign=middle;whiteSpace=wrap;rounded=0;fontSize=20;" parent="6XYQarOX-lOYf3YcvKte-9" vertex="1">
          <mxGeometry x="102.85714285714283" y="150.9162303664922" width="308.57142857142856" height="54.973821989528794" as="geometry" />
        </mxCell>
        <mxCell id="6XYQarOX-lOYf3YcvKte-5" value="" style="ellipse;whiteSpace=wrap;html=1;rounded=0;shadow=0;strokeWidth=6;fontSize=14;align=center;fillColor=#A20025;strokeColor=#FFFFFF;fontColor=#ffffff;" parent="6XYQarOX-lOYf3YcvKte-9" vertex="1">
          <mxGeometry x="34.28571428571428" y="144.40392670157064" width="68" height="68" as="geometry" />
        </mxCell>
        <mxCell id="6XYQarOX-lOYf3YcvKte-6" value="Milestones to be worked on" style="text;html=1;align=left;verticalAlign=middle;whiteSpace=wrap;rounded=0;fontSize=20;" parent="6XYQarOX-lOYf3YcvKte-9" vertex="1">
          <mxGeometry x="102.85714285714283" y="224.21465968586384" width="308.57142857142856" height="54.973821989528794" as="geometry" />
        </mxCell>
        <mxCell id="6XYQarOX-lOYf3YcvKte-7" value="" style="ellipse;whiteSpace=wrap;html=1;rounded=0;shadow=0;strokeWidth=6;fontSize=14;align=center;fillColor=#BFB4A9;strokeColor=#FFFFFF;fontColor=#ffffff;" parent="6XYQarOX-lOYf3YcvKte-9" vertex="1">
          <mxGeometry x="34.28571428571428" y="217.7023560209424" width="68" height="68" as="geometry" />
        </mxCell>
        <mxCell id="6XYQarOX-lOYf3YcvKte-8" value="Milestones" style="text;html=1;align=center;verticalAlign=middle;whiteSpace=wrap;rounded=0;fontStyle=1;fontSize=26;" parent="6XYQarOX-lOYf3YcvKte-9" vertex="1">
          <mxGeometry x="49.99857142857141" y="9.024607329842922" width="102.85714285714285" height="54.973821989528794" as="geometry" />
        </mxCell>
        <mxCell id="6XYQarOX-lOYf3YcvKte-10" value="Version 1.2.0" style="text;html=1;align=center;verticalAlign=middle;whiteSpace=wrap;rounded=0;fontSize=43;fontStyle=1" parent="1" vertex="1">
          <mxGeometry x="700" y="-300" width="60" height="30" as="geometry" />
        </mxCell>
        <mxCell id="6XYQarOX-lOYf3YcvKte-14" value="Version 1.1.0" style="text;html=1;align=center;verticalAlign=middle;whiteSpace=wrap;rounded=0;fontSize=43;fontStyle=1" parent="1" vertex="1">
          <mxGeometry x="700" y="142" width="60" height="30" as="geometry" />
        </mxCell>
        <mxCell id="6XYQarOX-lOYf3YcvKte-15" value="Version 1.0.0" style="text;html=1;align=center;verticalAlign=middle;whiteSpace=wrap;rounded=0;fontSize=43;fontStyle=1" parent="1" vertex="1">
          <mxGeometry x="70" y="587" width="60" height="30" as="geometry" />
        </mxCell>
      </root>
    </mxGraphModel>
  </diagram>
</mxfile>
